<svg width="290" height="125" viewBox="0 0 290 125" fill="none" xmlns="http://www.w3.org/2000/svg">
<path d="M157.667 90.5633V88.4605L160.387 87.9932V75.0925L157.667 74.6252V72.5057H163.658H166.379V74.6252L163.658 75.0925V85.2895L163.759 85.3229L171.719 72.5057H175.007H177.727V74.6252L175.007 75.0925V87.9932L177.727 88.4605V90.5633H168.999V88.4605L171.719 87.9932V77.7795L171.619 77.7461L163.658 90.5633H157.667ZM167.797 69.3348C166.184 69.3348 164.916 68.9009 163.992 68.033C163.069 67.1541 162.607 66.0192 162.607 64.6285L162.64 64.5283H165.144C165.144 65.3294 165.355 65.9803 165.778 66.4809C166.212 66.9816 166.885 67.232 167.797 67.232C168.687 67.232 169.349 66.9816 169.783 66.4809C170.217 65.9803 170.434 65.3294 170.434 64.5283H172.954L172.988 64.6285C172.977 66.0192 172.509 67.1541 171.586 68.033C170.673 68.9009 169.411 69.3348 167.797 69.3348Z" fill="white"/>
<path d="M148.162 90.9137C146.493 90.9137 145.041 90.5354 143.806 89.7789C142.571 89.0112 141.615 87.9486 140.936 86.5912C140.268 85.2339 139.935 83.6651 139.935 81.8849V81.1506C139.935 79.4372 140.285 77.9074 140.986 76.5611C141.698 75.2037 142.638 74.1356 143.806 73.3568C144.986 72.5668 146.271 72.1719 147.662 72.1719C149.286 72.1719 150.643 72.5057 151.734 73.1732C152.835 73.8408 153.664 74.7809 154.22 75.9937C154.777 77.1953 155.055 78.6139 155.055 80.2494V82.3021H143.339L143.289 82.3856C143.311 83.5427 143.512 84.5719 143.89 85.4731C144.279 86.3632 144.836 87.0641 145.559 87.5759C146.282 88.0877 147.15 88.3436 148.162 88.3436C149.275 88.3436 150.248 88.1878 151.083 87.8763C151.928 87.5536 152.657 87.1142 153.269 86.5579L154.554 88.6941C153.909 89.3171 153.052 89.8456 151.984 90.2795C150.927 90.7023 149.653 90.9137 148.162 90.9137ZM143.439 79.732H151.767V79.2981C151.767 78.4303 151.611 77.657 151.3 76.9783C150.999 76.2885 150.543 75.7489 149.931 75.3595C149.33 74.9589 148.574 74.7587 147.662 74.7587C146.927 74.7587 146.26 74.9756 145.659 75.4096C145.058 75.8323 144.563 76.4109 144.174 77.1452C143.784 77.8795 143.528 78.714 143.406 79.6486L143.439 79.732Z" fill="white"/>
<path d="M128.56 90.563V88.4602L131.28 87.9929V84.1211C130.635 84.2879 129.978 84.4103 129.311 84.4882C128.643 84.5661 127.936 84.605 127.191 84.605C125.745 84.605 124.499 84.3491 123.453 83.8373C122.407 83.3255 121.606 82.5634 121.049 81.5509C120.493 80.5385 120.215 79.2868 120.215 77.7959V75.0589L117.495 74.5916V72.4888H123.503H126.223V74.5916L123.503 75.0589V77.7959C123.503 78.7527 123.636 79.5427 123.903 80.1657C124.181 80.7888 124.593 81.2505 125.138 81.5509C125.695 81.8513 126.379 82.0015 127.191 82.0015C127.925 82.0015 128.626 81.9626 129.294 81.8847C129.961 81.7957 130.623 81.6678 131.28 81.5009V75.0923L128.56 74.625V72.5055H137.288V74.625L134.568 75.0923V87.9929L137.288 88.4602V90.563H128.56Z" fill="white"/>
<path d="M108.524 90.9137C106.855 90.9137 105.403 90.5354 104.168 89.7789C102.933 89.0112 101.976 87.9486 101.298 86.5912C100.63 85.2339 100.296 83.6651 100.296 81.8849V81.1506C100.296 79.4372 100.647 77.9074 101.348 76.5611C102.06 75.2037 103 74.1356 104.168 73.3568C105.347 72.5668 106.633 72.1719 108.023 72.1719C109.648 72.1719 111.005 72.5057 112.095 73.1732C113.197 73.8408 114.026 74.7809 114.582 75.9937C115.138 77.1953 115.417 78.6139 115.417 80.2494V82.3021H103.701L103.651 82.3856C103.673 83.5427 103.873 84.5719 104.252 85.4731C104.641 86.3632 105.197 87.0641 105.92 87.5759C106.644 88.0877 107.512 88.3436 108.524 88.3436C109.637 88.3436 110.61 88.1878 111.445 87.8763C112.29 87.5536 113.019 87.1142 113.631 86.5579L114.916 88.6941C114.271 89.3171 113.414 89.8456 112.346 90.2795C111.289 90.7023 110.015 90.9137 108.524 90.9137ZM103.801 79.732H112.129V79.2981C112.129 78.4303 111.973 77.657 111.662 76.9783C111.361 76.2885 110.905 75.7489 110.293 75.3595C109.692 74.9589 108.936 74.7587 108.023 74.7587C107.289 74.7587 106.621 74.9756 106.021 75.4096C105.42 75.8323 104.925 76.4109 104.535 77.1452C104.146 77.8795 103.89 78.714 103.768 79.6486L103.801 79.732Z" fill="white"/>
<path d="M77.7253 90.5634V88.4606L80.4456 87.9933V75.0927L77.7253 74.6254V72.5059H97.7856V74.6254L95.0652 75.0927V87.9933L97.7856 88.4606V90.5634H89.0572V88.4606L91.7775 87.9933V75.1094H83.7333V87.9933L86.4537 88.4606V90.5634H77.7253Z" fill="white"/>
<path d="M247.689 61.5888V59.486L250.059 59.1355L253.146 54.0954C252 53.6838 251.116 53.0329 250.492 52.1428C249.881 51.2527 249.575 50.2236 249.575 49.0553C249.575 47.965 249.853 47.0081 250.409 46.1848C250.965 45.3504 251.761 44.6995 252.796 44.2322C253.841 43.7649 255.076 43.5312 256.501 43.5312H266.848V45.6508L264.127 46.1181V59.0187L266.848 59.486V61.5888H258.119V59.486L260.84 59.0187V54.5794H256.384L252.111 61.5888H247.689ZM256.167 51.9926H260.84V46.0847H256.501C255.31 46.0847 254.409 46.3851 253.797 46.9859C253.185 47.5756 252.879 48.2765 252.879 49.0887C252.879 49.8898 253.152 50.574 253.697 51.1415C254.253 51.7089 255.076 51.9926 256.167 51.9926Z" fill="white"/>
<path d="M225.268 61.5888V59.486L227.988 59.0187V46.1181L225.268 45.6508V43.5312H233.996V45.6508L231.276 46.1181V51.3417H239.303V46.1181L236.583 45.6508V43.5312H239.303H242.608H245.328V45.6508L242.608 46.1181V59.0187L245.328 59.486V61.5888H236.583V59.486L239.303 59.0187V53.9119H231.276V59.0187L233.996 59.486V61.5888H225.268Z" fill="white"/>
<path d="M204.032 68.5313V66.4118L206.585 65.9445V46.1179L203.865 45.6506V43.531H209.406L209.706 45.734C210.307 44.9107 211.036 44.2821 211.892 43.8481C212.76 43.4142 213.761 43.1973 214.896 43.1973C216.387 43.1973 217.661 43.6034 218.718 44.4156C219.775 45.2166 220.582 46.3459 221.138 47.8035C221.694 49.2498 221.973 50.9466 221.973 52.8936V53.2441C221.973 54.9798 221.689 56.4985 221.121 57.8002C220.565 59.102 219.764 60.12 218.718 60.8543C217.672 61.5775 216.415 61.9391 214.946 61.9391C213.834 61.9391 212.855 61.7555 212.009 61.3884C211.175 61.0101 210.463 60.4538 209.873 59.7195V65.9445L212.743 66.4118V68.5313H204.032ZM213.928 59.369C215.486 59.369 216.665 58.8016 217.466 57.6667C218.268 56.5318 218.668 55.0576 218.668 53.2441V52.8936C218.668 51.514 218.49 50.3013 218.134 49.2554C217.778 48.1984 217.244 47.3695 216.532 46.7687C215.831 46.1679 214.952 45.8675 213.895 45.8675C212.96 45.8675 212.159 46.0789 211.492 46.5017C210.824 46.9245 210.285 47.503 209.873 48.2374V57.0325C210.285 57.778 210.819 58.3565 211.475 58.7682C212.143 59.1687 212.96 59.369 213.928 59.369Z" fill="white"/>
<path d="M195.41 61.9391C193.741 61.9391 192.289 61.5608 191.054 60.8042C189.819 60.0365 188.862 58.974 188.183 57.6166C187.516 56.2593 187.182 54.6905 187.182 52.9103V52.176C187.182 50.4626 187.532 48.9327 188.233 47.5865C188.945 46.2291 189.885 45.161 191.054 44.3822C192.233 43.5922 193.518 43.1973 194.909 43.1973C196.533 43.1973 197.891 43.531 198.981 44.1986C200.082 44.8662 200.911 45.8063 201.468 47.0191C202.024 48.2207 202.302 49.6393 202.302 51.2748V53.3275H190.586L190.536 53.411C190.559 54.5681 190.759 55.5973 191.137 56.4985C191.527 57.3885 192.083 58.0895 192.806 58.6013C193.529 59.1131 194.397 59.369 195.41 59.369C196.522 59.369 197.496 59.2132 198.33 58.9017C199.176 58.579 199.904 58.1396 200.516 57.5833L201.801 59.7195C201.156 60.3425 200.299 60.871 199.231 61.3049C198.174 61.7277 196.9 61.9391 195.41 61.9391ZM190.687 50.7574H199.014V50.3235C199.014 49.4557 198.859 48.6824 198.547 48.0037C198.247 47.3139 197.791 46.7743 197.179 46.3849C196.578 45.9843 195.821 45.7841 194.909 45.7841C194.175 45.7841 193.507 46.001 192.906 46.4349C192.305 46.8577 191.81 47.4363 191.421 48.1706C191.031 48.9049 190.776 49.7394 190.653 50.674L190.687 50.7574Z" fill="white"/>
<path d="M173.27 61.5888V59.486L175.99 59.0187V46.0847H172.185L171.934 48.9051H169.131V43.5312H186.22V48.9051H183.4L183.149 46.0847H179.278V59.0187L181.998 59.486V61.5888H173.27Z" fill="white"/>
<path d="M159.742 61.9391C158.107 61.9391 156.682 61.5608 155.47 60.8042C154.257 60.0365 153.317 58.974 152.649 57.6166C151.982 56.2593 151.648 54.6905 151.648 52.9103V52.2094C151.648 50.496 151.971 48.9606 152.616 47.6032C153.261 46.2458 154.19 45.1721 155.403 44.3822C156.616 43.5922 158.062 43.1973 159.742 43.1973C161.2 43.1973 162.474 43.4365 163.564 43.9149C164.665 44.3933 165.589 45.0498 166.334 45.8842L166.418 50.2234H163.848L163.28 47.0691C162.902 46.6797 162.429 46.3682 161.862 46.1345C161.294 45.9009 160.627 45.7841 159.859 45.7841C158.88 45.7841 158.018 46.0734 157.272 46.6519C156.538 47.2305 155.965 48.0037 155.553 48.9717C155.142 49.9397 154.936 51.0189 154.936 52.2094V52.9103C154.936 54.2232 155.125 55.3636 155.503 56.3316C155.893 57.2995 156.443 58.0505 157.155 58.5846C157.879 59.1075 158.735 59.369 159.725 59.369C160.838 59.369 161.762 59.063 162.496 58.4511C163.23 57.8392 163.681 56.9991 163.848 55.931H166.802L166.835 56.0312C166.779 57.0659 166.473 58.0339 165.917 58.9351C165.361 59.8363 164.565 60.565 163.531 61.1213C162.507 61.6665 161.244 61.9391 159.742 61.9391Z" fill="white"/>
<path d="M129.011 61.5887V59.4859L131.732 59.0186V46.1179L129.011 45.6506V43.5311H135.003H137.723V45.6506L135.003 46.1179V56.3149L135.103 56.3483L143.064 43.5311H146.351H149.072V45.6506L146.351 46.1179V59.0186L149.072 59.4859V61.5887H140.343V59.4859L143.064 59.0186V48.8048L142.963 48.7715L135.003 61.5887H129.011ZM139.142 40.3602C137.528 40.3602 136.26 39.9262 135.337 39.0584C134.413 38.1795 133.951 37.0446 133.951 35.6538L133.985 35.5537H136.488C136.488 36.3548 136.699 37.0057 137.122 37.5063C137.556 38.007 138.229 38.2573 139.142 38.2573C140.032 38.2573 140.694 38.007 141.128 37.5063C141.562 37.0057 141.778 36.3548 141.778 35.5537H144.299L144.332 35.6538C144.321 37.0446 143.854 38.1795 142.93 39.0584C142.018 39.9262 140.755 40.3602 139.142 40.3602Z" fill="white"/>
<path d="M115.918 61.9391C114.038 61.9391 112.608 61.4829 111.629 60.5706C110.65 59.6471 110.161 58.351 110.161 56.682C110.161 54.9686 110.861 53.5946 112.263 52.5598C113.665 51.514 115.612 50.9911 118.105 50.9911H121.326V49.222C121.326 48.1317 120.992 47.2861 120.324 46.6853C119.668 46.0845 118.739 45.7841 117.537 45.7841C116.781 45.7841 116.124 45.8786 115.568 46.0678C115.011 46.2458 114.505 46.4961 114.049 46.8188L113.699 49.3388H111.162V45.2C111.974 44.5435 112.92 44.0484 113.999 43.7146C115.078 43.3697 116.274 43.1973 117.587 43.1973C119.779 43.1973 121.498 43.7202 122.744 44.766C123.99 45.8119 124.613 47.3083 124.613 49.2554V57.9504C124.613 58.1841 124.613 58.4121 124.613 58.6347C124.624 58.8572 124.641 59.0797 124.663 59.3022L126.416 59.4858V61.5886H121.693C121.593 61.0991 121.515 60.6596 121.459 60.2702C121.403 59.8808 121.364 59.4914 121.342 59.102C120.708 59.9142 119.913 60.5928 118.956 61.138C118.01 61.6721 116.997 61.9391 115.918 61.9391ZM116.402 59.1854C117.493 59.1854 118.488 58.9239 119.39 58.401C120.291 57.8781 120.936 57.2495 121.326 56.5152V53.2441H117.988C116.475 53.2441 115.34 53.6057 114.583 54.3289C113.827 55.0521 113.448 55.8587 113.448 56.7488C113.448 57.5387 113.693 58.1451 114.183 58.5679C114.672 58.9796 115.412 59.1854 116.402 59.1854Z" fill="white"/>
<path d="M77.6753 61.5889V59.486L80.3956 59.0187V39.8764L77.6753 39.4091V37.2896H80.3956H84.7848L92.612 55.731H92.7122L100.289 37.2896H107.616V39.4091L104.895 39.8764V59.0187L107.616 59.486V61.5889H98.8871V59.486L101.758 59.0187V51.9759V41.7789L101.674 41.7622L93.7803 60.721H91.594L83.433 41.7956L83.3496 41.8123L83.4664 51.9759V59.0187L86.4037 59.486V61.5889H77.6753Z" fill="white"/>
<g clip-path="url(#clip0_8202_62416)">
<path d="M15.2319 47.3845C16.5961 49.8622 18.0046 52.9335 19.0892 56.5572C19.8009 58.9353 20.2521 61.1502 20.5347 63.134C22.9642 60.7532 25.8553 57.2968 27.9608 52.6626C33.4457 40.5859 29.578 29.3418 28.1532 25.75C31.3698 27.0991 36.3442 29.6777 40.6897 34.4035C49.2077 43.6732 49.0465 54.3968 48.8852 57.4216C49.9904 56.2969 51.3872 54.6332 52.5486 52.4037C53.8418 49.918 54.3552 47.6633 54.5727 46.0858C64.0628 58.0868 65.1488 72.721 57.563 82.5164C56.7522 83.5628 48.0152 94.4683 34.3245 93.5933C25.1067 93.005 19.3599 87.4414 18.4145 86.4973C13.2773 81.3692 11.5077 74.4697 12.2431 68.9313C12.8911 64.0528 15.2171 62.2496 15.7157 55.6051C15.9717 52.1647 15.5988 49.3005 15.2319 47.3845Z" fill="#F01E01"/>
<path d="M35.8679 39.4229C36.1609 45.1883 34.8899 49.3299 33.7462 51.9709C30.716 58.9647 26.0124 61.3641 23.2366 69.104C21.9597 72.6626 21.6638 75.7538 21.5958 77.6712C21.3072 76.8108 20.8382 75.7193 20.054 74.5561C19.0583 73.0796 17.9293 72.0346 17.0652 71.3547C16.8818 74.0263 16.8936 80.0494 20.9211 85.7193C22.1047 87.3844 24.0489 90.0507 27.8648 91.8632C30.2011 92.9733 32.3879 93.3583 33.8438 93.507C38.3477 93.507 41.9919 92.8126 43.0025 92.555C47.1305 91.5033 49.7494 86.9236 51.2941 84.2228C55.8246 76.2956 56.0584 68.229 55.6338 63.1341C55.1056 65.1099 54.2533 67.5279 52.8373 70.1437C51.7188 72.2125 50.4951 73.9413 49.3677 75.3356C49.0215 73.7116 48.3719 71.3441 47.0521 68.6725C45.0325 64.5801 43.47 63.8816 41.6531 60.3642C40.1439 57.4456 40.4443 56.4245 38.9528 50.1531C38.3566 47.6461 37.3874 43.9388 35.8679 39.4229Z" fill="#F35B00"/>
<path d="M27.6724 68.0656C27.6458 69.4094 27.517 71.4078 26.9962 73.7766C26.1366 77.6885 25.1541 78.3072 24.6822 81.0452C24.4099 82.6267 23.5236 87.7774 26.9962 90.9974C29.584 93.3968 33.2949 93.6106 35.2879 93.6796C36.9347 93.7367 41.3557 93.8031 44.4495 91.3439C49.3662 87.4361 48.3571 78.9871 45.5089 73.8643C43.7482 70.6934 42.1354 70.3362 40.0122 66.2491C38.1938 62.7436 37.559 59.5024 37.3134 57.249C36.8251 58.5384 36.1179 60.7598 35.964 63.5656C35.6681 68.9592 37.6833 71.6136 36.1564 75.3355C35.6548 76.5571 34.6472 78.1944 32.3952 79.8342C32.4455 78.533 32.3494 76.7497 31.7206 74.7287C30.7159 71.4994 28.8531 69.2686 27.6724 68.0656Z" fill="#FDB800"/>
</g>
<defs>
<clipPath id="clip0_8202_62416">
<rect width="51.7857" height="69.0476" fill="white" transform="translate(12.0834 25.75)"/>
</clipPath>
</defs>
</svg>
